<svg xmlns="http://www.w3.org/2000/svg" width="1200" height="1122.52" viewBox="0 0 317.5 297" xmlns:v="https://vecta.io/nano"><defs><mask maskUnits="userSpaceOnUse" id="A"><ellipse cx="39.796" cy="100.628" rx="4.074" ry="10.853" transform="matrix(.95085 -.309651 .233803 .972284 0 0)" fill="#fff" fill-opacity="1" stroke-width=".227"/></mask><filter id="B" x="-.143" y="-1.554" width="1.286" height="4.108" color-interpolation-filters="sRGB"><feGaussianBlur stdDeviation="5" result="A"/><feGaussianBlur stdDeviation=".01" in="SourceGraphic"/><feComposite operator="arithmetic" in="A" k2="0.5" k3="0.5"/><feBlend in2="A" result="A"/><feColorMatrix values="0 0 0 -1 0 0 0 0 -1 0 0 0 0 -1 0 0 0 0 1 0"/><feColorMatrix in="A" values="1 0 0 0 0 0 1 0 0 0 0 0 1 0 0 -0.2125 -0.7154 -0.0721 1 0 "/><feComposite in="A" operator="arithmetic" k2="1" k3="0" k4="0" result="F"/><feGaussianBlur stdDeviation="5 0.01" result="G"/><feGaussianBlur in="F" stdDeviation="0.01 5"/><feBlend in2="G" mode="darken"/></filter><path id="C" d="M151.804 193.351c-1.582-5.56-.47-18.992-.25-19.207 23.625-11.255 79.136-46.214 120.372-73.103 6.394-.272 5.574 20.565-9.069 34.339-36.082 17.041-71.461 40.385-111.053 57.971z"/><path id="D" d="M150.18 203.68c-1.118-5.672 1.099-18.966 1.336-19.162 24.473-9.267 82.679-39.528 125.993-62.922 6.395.256 3.858 20.955-11.871 33.473-37.365 14.006-74.549 34.352-115.457 48.611z"/><path id="E" d="M146.437 215.72c-.687-5.74 2.527-18.829 2.778-19.006 25.102-7.394 85.425-33.177 130.381-53.237 6.357.738 2.266 21.186-14.363 32.482-38.315 11.147-76.928 28.629-118.796 39.761z"/><path id="F" d="M142.212 222.987c-.07-5.78 4.522-18.451 4.791-18.601 25.748-4.672 88.479-23.868 135.319-39.014 6.242 1.412-.008 21.307-17.749 30.763-39.286 6.993-79.545 20.253-122.361 26.852z"/></defs><ellipse cx="163.045" cy="275.122" rx="84.058" ry="7.739" fill="#e6e6e6" filter="url(#B)"/><path d="M122.518 271.48c5.447-10.429 5.317-26.673 5.145-27.871 0 0-1.678-.351-2.277-.403-.043 7.418-.598 20.018-4.889 27.006 0 0 1.344 1.287 2.021 1.267z" fill="#f60"/><g transform="matrix(.652057 .004353 -.004353 .652057 84.502687 94.73232)"><use href="#C" fill="#57d2fc"/><use href="#D" fill="#36b8e4"/><use href="#E" fill="#1c98ce"/><use href="#F" fill="#0375a7"/><use href="#C" fill="#57d2fc"/><use href="#D" fill="#36b8e4"/><use href="#E" fill="#1c98ce"/><use href="#F" fill="#0375a7"/></g><path d="M125.92 247.456c-29.825-24.532-57.969-67.792-43.372-86.623 13.796-14.245 1.776-32.532-2.641-47.655-4.264-15.019-8.804-31.804-2.681-46.934 6.983-13.18 23.407-18.204 37.46-17.413 14.609 2.543 22.031 17.999 24.327 31.26 3.417 18.371-7.564 44.409 14.195 64.175 56.274 40.426 19.041 82.195 88.432 90.479-30.348 6.623-100.19 27.724-115.72 12.71z" fill="#fbeba6"/><path d="M194.44 269.412c-6.225-10.232-6.077-26.169-5.879-27.345 0 0 1.918-.345 2.602-.395.049 7.278.684 19.64 5.587 26.497 0 0-1.536 1.262-2.31 1.243z" fill="#f60"/><g transform="matrix(.058852 .619279 -.613024 .058276 275.368978 114.063794)"><path d="M43.112 200.909c-4.174 2.356-6.154-1.414-10.97-3.041 30.491-22.054 43.355-66.267 79.61-79.86-3.42 12.697-13.879 16.955-23.056 24.574 4.115-1.578 13.901-.69 8.147 5.077-3.531 3.54-7.445 7.211-11.276 10.148 4.651.71 20.65 14.481-5.74 16.153-1.542.078-13.18 3.242-13.292 4.267.718 4.187 4.033 10.06 1.241 13.743-5.924.017-11.74 13.716-12.532 10.63-8.099-.861-9.059-3.829-12.133-1.691z" fill="#4ac9f1"/><path d="M68.027 245.59c-14.393-1.319-24.287-2.204-39.892-20.772 7.929 3.213 16.055 8.381 24.87 7.722 7.06 2.239 6.751-7.139-2.031-10.309-4.327-2.163-3.202-4.894 2.886-2.043 7.737 1.933 18.628 5.933 25.033-.24 6.767-4.711-12.821-8.9-1.274-8.437 16.714-.766 19.744-1.442 27.473-10.906 1.077-6.295-14.955-3.805-2.363-6.455 7.852-2.302 23.819-3.985 26.954-12.41 3.132-7.879-27.808.945-16.465-5.185 10.449-4.373 28.724-11.99 33.085-23.004-1.489-5.078-22.955 4.281-14.01-1.168 6.561-4.871 23.294-11.366 20.18-21.054-78.643 24.462 14.646-22.656 35.263-60.991 13.995-26.022 1.157 8.726-1.703 18.768-5.97 13.14-5.261 19.612-15.454 29.927 4.155 6.065 12.839-6.675 11.47 4.913-8.519 21.698-20.998 36.924-37.923 52.101 6.392 3.513 14.128-3.719 15.757 4.401-11.149 16.88-31.852 29.422-50.254 36.314-4.246 2.785-16.956 2.118-6.748 7.876 18.417 1.729 3.498 24.87-34.853 20.954z" fill="#57d2fd"/><path d="M46.976 233.829c-8.933-1.405-18.136-5.035-24.196-11.92 4.379 3.245 9.248 7.749 15.374 7.654 6.212 1.835 15.45-2.989 8.157-9.052-1.594-2.249-6.896-8.205-1.04-4.92 7.784 2.609 16.878 5.454 24.795 1.999 3.809-3.619-13.693-11.708-4.93-10.614 9.462.356 22.424 2.037 31.013-2.674 6.707-6.696-9.725-5.907-10.626-9.226 9.226-.941 19.342-2.325 26.518-8.759 5.502-6.607-25.365-5.592-7.653-10.796 8.502-3.592 15.879-6.398 22.079-13.5.255-2.812-9.678-.861-13.243-2.342-4.711-.539 7.849-6.067 9.068-7.579 6.19-3.483 14.255-5.55 17.87-11.927-5.158-.666-13.791.774-18.137.098-4.153.883-.179-2.68 1.924-4.638 6.72-7.49 9.13-12.872 17.923-25.507-16.075-4.044 9.436-9.721 13.143-8.145.997 3.235-4.764 16.474-16.987 28.425-5.764 5.892 16.361-5.862 17.997.382-3.214 10.348-12.904 16.673-21.813 21.785 4.307-.77 17.651-5.692 13.104 2.476-6.13 11.518-21.352 18.066-32.569 22.986 4.598 2.103 24.204-7.091 17.079 2.82-5.92 9.238-18.355 13.875-28.743 15.467-3.507 2.23 15.896-.392 8.763 6.693-9.352 9.55-23.67 9.653-36.142 9.644 1.341 2.145 14.641 6.479 5.25 10.45-9.444 4.174-20.237 1.603-29.404-2.118 3.544 4.132 10.845 6.158 12.492 11.116-4.952 3.048-11.527 1.906-17.065 1.725z" fill="#0475a7"/><path d="M32.568 230.007c20.223 11.978 58.586 17.783 75.703 4.529 3.036-8.152-21.308-11.109-6.785-16.877 20.338-5.952 36.047-14.596 50.027-30.839 19.858-17.716-10.846-2.268-8.563-11.71 6.222-8.543 13.536-13.454 19.646-22.222 6.949-8.57 13.798-17.658 16.867-28.439-3.361-5.683-20.077 4.256-14.112-6.343 14.438-15.125 30.61-55.505 28.924-58.575 17.999 6.146-28.991 66.362-11.505 53.72 22.002-23.844 7.792 10.389-1.664 24.845-6.428 10.712-10.569 19.263-26.753 31.699-16.258 12.377 18.591-5.649 11.815 12.076-10.445 16.258-27.5 28.212-58.436 40.309 43.702 17.429-49.326 44.638-75.164 7.827zm116.752-62.391c-1.042-.365-.682 3.892 0 0z" fill="#40c9f2"/><path d="M15.301 209.71c11.149-6.457 28.892-17.52 31.641-8.952 2.963 6.954 10.195 5.807 11.881 1.32 1.616-3.219 4.478-10.715 5.088-4.223 6.556 5.446 11.801-5.296 10.026-11.166-1.83-4.609.779-4.896 5.895-4.556 8.561-1.796 15.038-8.48 16.314-17.571 2.472-5.109-8.532-5.464-2.303-7.573 5.16-3.405 14.04-7.09 14.439-14.028-.267-5.596-14.721.53-7.919-4.954 5.381-5.502 11.047-13.424 12.739-20.649 8.551-4.878 17.918-8.567 26.527-12.995 5.049 4.846.668 12.648-2.541 17.458-4.225 6.196-9.495 11.559-14.648 16.975 5.999.066 12.143-1.469 18.015-.011-1.774 6.411-8.809 9.599-14.028 13.013-2.84 2.193-10.92 4.626-11.472 6.199 4.221 1.611 12.981-1.833 14.464 2.26-3.552 6.624-11.153 9.704-17.482 13.124-2.144 2.122-11.696 2.935-9.38 5.407 3.531 1.984 14.918 3.194 8.13 8.751-7.253 5.295-16.453 6.706-25.165 7.534 3.734 3.234 16.381 2.951 12.526 9.798-7.116 5.08-16.586 4.511-24.93 4.584-2.794.143-8.891-.288-3.278 3.86 5.6 2.806 4.678 6.936-.784 5.947-7.744.45-18.708-.893-25.82-3.736 11.557 11.581 5.639 15.142.245 15.2-19.528.207-32.544-18.49-28.181-21.017z" fill="#1c98ce"/><path d="M45.265 203.797c-50.496 19.831-15.855-4.116-11.006-7.289-2.328 6.149 12.488-2.563 14.365-2.53-2.96 4.524 2.139 8.611 5.437 4.099 3.312-2.055 5.193-9.042 7.122-9.94.447 5.963 7.149 3.3 6.165-1.688.254-3.885-.645-7.697-1.587-11.435 7.116-.55 15.105-1.959 19.826-7.875 3.706-3.485.894-8.744-2.81-9.737 4.634-3.184 10.637-5.692 12.881-11.223 1.289-4.498-5.812-3.361-6.633-3.919 8.045-7.082 16.33-15.045 22.382-23.98.412-.168 1.769-1.339 1.696-.868-.215 1.397-1.442 5.717-2.136 6.978-2.182 6.001-5.964 11.228-10.429 15.735 6.63-1.671 10 .176 7.382 5.521-3.046 6.084-9.372 9.461-15.041 12.748 3.752.521 6.564 4.073 5.337 7.861-2.536 9.167-11.805 15.33-20.98 16.304-5.927-.487-.212 6.722-2.013 10.239-.484 4.237-3.625 9.462-8.472 8.875-3.574.332-2.551-9.006-4.579-2.936-1.639 3.422-4.839 9.73-12.014 11.509-11.009 1.549 2.13-11.171-4.895-6.45z" fill="#36b8e4"/></g><g fill="#0f0"><g transform="translate(22.327 .167)"><ellipse cx="43.997" cy="102.377" rx="4.074" ry="10.853" transform="matrix(.95085 -.309651 .233803 .972284 0 0)" fill="#fff"/><ellipse cx="61.509" cy="86.326" rx="5.47" ry="5.07" mask="url(#A)" transform="translate(4.403 .4)" fill="#000"/></g><g transform="translate(54.971 -5.871)"><ellipse cx="43.997" cy="102.377" rx="4.074" ry="10.853" transform="matrix(.95085 -.309651 .233803 .972284 0 0)" fill="#fff"/><ellipse cx="61.509" cy="86.326" rx="5.47" ry="5.07" mask="url(#A)" transform="translate(4.403 .4)" fill="#000"/></g></g><path d="M96.663 99.412c5.606-4.116 12.755-5.9 19.616-5.445-3.108 4.99-4.841 6.371-5.019 15.411-3.784-5.492-9.718-6.65-14.598-9.966zm10.76 3.759c-1.369-3.069-3.024-5.367-5.031-3.226 1.876-.121 3.355 1.539 5.031 3.226z" fill="#f9cd4d"/><path d="M78.074 68.289c4.466-1.061-1.972-11.567 10.675-22.243-1.88 4.175-4.558 13.018-.023 4.761 4.295-10.745 7.362-13.404 11.219-14.5-4.529 9.277-4.259 14.296-2.171 10.415 1.638-2.057 2.482-6.128 8.292-6.438-7.818 8.689 5.219 7.138 11.995 9.788-1.072 1.325-15.833 7.26-24.853 8.338-2.393.112-12.777 10.33-15.134 9.879z" fill="#fbeba6"/><path d="M129.581 252.585c-2.101-1.535-5.563-4.4-7.842-6.876-4.877-4.853-7.71-8.157-10.658-14.355-1.242 1.886-.159 8.615-3.406 8.264-4.37-1.922-7.206-9.757-9.491-13.632-2.839-4.95-3.933-8.778-5.669-14.179-2.624.032-.954 10.249-4.968 9.088-3.736-3.895-5.825-11.787-6.77-16.892-1.074-6.412-.621-13.219.15-19.628-2.246 2.355-6.235 8.926-7.485 3.712-3.077-9.343.211-19.694 5.872-27.351.73-1.276-2.895 2.903-.52.149 3.411-3.282 6.477-8.918 11.378-8.726-3.655 1.134-13.791 21.629-5.318 14.596 1.516-.721-7.603 15.869 2.381 10.244-.241 2.222-2.245 6.238-2.252 9.349-.841 3.139 1.205 12.123 4.506 5.877-2.401 2.991 1.438 19.751 4.684 11.286.588-1.805 1.626-5.002 1.469-.966.272 4.998 4.653 19.936 5.636 12.941.726-1.655 1.679-5.915 2.046.322.622 3.428 2.067 8.457 6.343 8.47.868-1.134-.204-6.674 1.712-2.952 1.974 4.432 10.559 23.735 13.463 13.734 1.406 8.077.774 10.672 7.159 17.871-.814.209-1.646-.118-2.419-.343z" fill="#65d7fd"/><path d="M129.359 252.13c-3.098-.913-9.938-6.064-13.086-9.855-1.073-1.293-1.665-2.22-3.812-5.969-1.182-2.064-1.368-1.547-.895 2.485.25 2.133.228 4.727-.042 4.997-.185.185-1.991-.875-3.324-1.952-5.895-4.763-10.665-11.835-14.151-20.983-2.444-6.412-2.999-6.155-3.014 1.399-.007 3.47-.108 4.956-.337 4.956-.367 0-2.683-2.485-3.512-3.769-6.32-9.789-8.559-17.9-8.08-29.263.277-6.566-.471-6.646-2.474-.263-.361 1.15-.763 2.298-.894 2.551l-.237.46-.504-.583c-6.182-7.151-3.604-26.857 4.663-35.646.968-1.029.916-.922-.576 1.182-2.791 3.938-4.418 7.816-5.805 13.84-.897 3.892-.131 11.582 1.307 13.125.781.838 1.286.555 3.394-1.903 1.41-1.644 3.691-3.711 4.096-3.711.218 0 .112 1.472-.428 5.927-1.292 10.667 1.713 25.776 5.736 28.845 1.381 1.053 2.1.099 3.276-4.341 1.278-4.827 1.467-4.969 2.434-1.828 2.039 6.624 2.698 8.241 5.728 14.062 3.499 6.721 6.109 9.99 8.538 10.692l.92.266.351-.408c.541-.628 1.114-2.689 1.376-4.944.377-3.248.397-3.27 1.244-1.412.689 1.511 2.517 4.744 3.735 6.603 2.846 4.346 9.001 11.021 12.839 13.925 1.785 1.35 2.216 1.699 2.069 1.669-.038-.008-.279-.076-.534-.151z" fill="#49c6f3"/></svg>