<svg xmlns="http://www.w3.org/2000/svg" width="256" height="256" xmlns:v="https://vecta.io/nano"><defs><clipPath id="A"><path d="M16629.1 9364.79c-24.3 248.59-61.7 495.31-104.2 741.11l-30.4-6.6 28.9 6.6c-47.6 234.1-99 467.7-167.2 696.7-79.9 290.6-181.8 574.7-294.9 854.2l-4.2-1.9c-95.3 257-220.1 501.9-346.2 744.4-129.5 236.9-267.3 468.6-417.8 692.5-170.5 250.9-353.2 493.4-549.5 725.2-1009.3 1189.2-2367.7 2078.9-3864.8 2519.1-1516.81 448.5-3165.35 440.6-4676.53-25.7-1483.11-455.6-2830.74-1349.1-3819.49-2545.3l-2.35 1.4c-188.77-224.7-364.46-460.2-527.07-704.2-137.86-209.8-271.96-423.3-386.91-647.1-128.03-230.9-242.52-470.1-341.58-715.4l-4.21 2.8c-76.16-198.6-155.125-396.7-221.019-599.1-78.032-244.8-147.188-492.5-203.727-742.9-65.414-295.4-116.351-594.42-148.601-895.35-15.411-154.2-28.028-308.87-36.907-464-10.758-252.33-15.422-505.13-1.871-757.45 165.418 245.32 323.352 496.71 474.75 750.91 90.195 125.7 167.755 258.87 250.935 388.3 229.42 375.22 709.32 597.65 1136.88 457.93 169.15-28.97 308.86-135.04 439.7-239.24 234.11-261.21 406.53-571.95 603.72-860.72l5.87 2.19 453.93-663.39 1.87.94c160.27-234.11 302.79-484.1 489.24-698.58 121.01 236.44 277.09 452.32 412.14 679.89l388.76 624.28.94-.47 548.11 876.14 461.2 738.32 472.88 756.5 370.55 592c146.73 246.3 312.14 481.3 449.05 732.7 159.81 350.9 522.88 593.9 900.44 651.9 147.19 22.4 283.64 10.7 428.49-14.5 220.1-56.1 427.56-165 585.96-329.9 104.67-115.9 186.45-250 275.22-378.5 146.73-225.7 304.67-443 456.53-664.9l581.8-857 4.6 1.4 507.5-755.6 2.8.9c176.6-253.23 355.1-506.03 516.8-769.11 173.8-273.35 381.8-535.49 561.2-805.58l2.3-.46c101.4-165.42 220.6-319.15 329-479.9 152.3-221.95 294.9-450.45 455.1-666.8 134.1 226.16 280.9 443.91 411.2 671.48 104.7 151.86 196.8 311.2 293.9 467.27l364.2 583.71c111.4 181.63 213.2 374.49 358.8 531.85 276.4 298.47 705.2 390.34 1082 234.35 245.8-101.75 397.5-327.23 549.7-532.9 158.5-214.18 294.2-445.55 458.1-655.41 12.5-16.04 71.8-69.86 71.7-88.24 1.4 280.37-13 560.26-37.3 839.23z"/></clipPath><linearGradient x1="0" y1="0" x2="1" y2="0" gradientUnits="userSpaceOnUse" gradientTransform="matrix(-166.337,-8524.77,-8524.77,166.337,8732.58,16237.7)" spreadMethod="pad" ><stop offset="0" stop-color="#62ccf4"/><stop offset="1" stop-color="#d7c978"/></linearGradient><linearGradient id="C" x1=".322" y1=".03" x2=".844" y2=".001" gradientUnits="userSpaceOnUse" gradientTransform="matrix(-166.337,-8524.77,-8524.77,166.337,8732.58,16237.7)" spreadMethod="pad"><stop offset="0" stop-color="#3ccbf0"/><stop offset="1" stop-color="#72e3dc"/></linearGradient></defs><g transform="matrix(.149122 0 0 -.149122 0 256)"><path d="M1716.72 858.361C1716.72 384.3 1332.42 0 858.359 0S0 384.3 0 858.361s384.3 858.359 858.359 858.359 858.361-384.3 858.361-858.359" fill="#100f0d"/><path d="M1375.16 610.88c23.357 19.731 40.701 18.161 56.351 2.881 47.905-71.081 27.232-114.395 27.472-202.665-.05-7.61-24.483-109.826-22.283-117.076l.04-.28c-20.04-19.76-40.42-39.3-62.28-57.1l.7 374.24" fill="#e79300"/><path d="M1539.818 660.278c37.2 7.76 59.162-38.318 82.342-66.268-38.55-112.1-102.61-215.27-185.46-299.99-2.2 7.25-4.44 14.63-4.39 22.24l-.38 264.81c25.7 25.33 25.018 87.284 60.528 95.554" fill="#fba722"/><path d="M318.836 579.62c14.625 13.04 30.793 24.58 49.624 30.7l.094-394.47c-17.663 12.57-33.738 27.15-50.372 40.98l.186 1.03c.284 22.993-54.506 75.218-54.319 96.158-.047 65.51 21.418 96.823 21.605 162.293-1.319 194.939 2.118 40.181 33.182 63.308" fill="#bb2c35"/><path d="M104.59 566.16c30.7 32.34 51.881 111.653 96.599 119.503 41.074 6.77 99.844-69.403 117.647-106.043l-.468-321.76c-94.856 83.31-168.032 190.78-213.778 308.3" fill="#da3241"/><g clip-path="url(#A)" transform="scale(.1)"><path d="M16629.1 9364.79c-24.3 248.59-61.7 495.31-104.2 741.11l-30.4-6.6 28.9 6.6c-47.6 234.1-99 467.7-167.2 696.7-79.9 290.6-181.8 574.7-294.9 854.2l-4.2-1.9c-95.3 257-220.1 501.9-346.2 744.4-129.5 236.9-267.3 468.6-417.8 692.5-170.5 250.9-353.2 493.4-549.5 725.2-1009.3 1189.2-2367.7 2078.9-3864.8 2519.1-1516.81 448.5-3165.35 440.6-4676.53-25.7-1483.11-455.6-2830.74-1349.1-3819.49-2545.3l-2.35 1.4c-188.77-224.7-364.46-460.2-527.07-704.2-137.86-209.8-271.96-423.3-386.91-647.1-128.03-230.9-242.52-470.1-341.58-715.4l-4.21 2.8c-76.16-198.6-155.125-396.7-221.019-599.1-78.032-244.8-147.188-492.5-203.727-742.9-65.414-295.4-116.351-594.42-148.601-895.35-15.411-154.2-28.028-308.87-36.907-464-10.758-252.33-15.422-505.13-1.871-757.45 165.418 245.32 323.352 496.71 474.75 750.91 90.195 125.7 167.755 258.87 250.935 388.3 1303.39 995.136 2012.096-393.093 2640.1-1303.23l491.11-697.64c121.01 236.44 277.09 452.32 412.14 679.89l388.76 624.28.94-.47 548.11 876.14 461.2 738.32 472.88 756.5 370.55 592c146.73 246.3 312.14 481.3 449.05 732.7 159.81 350.9 522.88 593.9 900.44 651.9 147.19 22.4 283.64 10.7 428.49-14.5 220.1-56.1 427.56-165 585.96-329.9 104.67-115.9 186.45-250 275.22-378.5 146.73-225.7 304.67-443 456.53-664.9l581.8-857 4.6 1.4 507.5-755.6 2.8.9c176.6-253.23 355.1-506.03 516.8-769.11 173.8-273.35 381.8-535.49 561.2-805.58l2.3-.46c101.4-165.42 220.6-319.15 329-479.9 152.3-221.95 294.9-450.45 455.1-666.8 134.1 226.16 280.9 443.91 411.2 671.48 104.7 151.86 196.8 311.2 293.9 467.27 121.3 194.69 343.824 482.06 463.624 677.61 405.989 543.507 1372.869 666.531 1891.076 139.4 158.5-214.18 294.2-445.55 458.1-655.41 12.5-16.04 71.8-69.86 71.7-88.24 1.4 280.37-13 560.26-37.3 839.23" fill="url(#C)"/></g><path d="M1530.633 869.559c14.53 7.103 27.772 20.197 35.912 10.945 21.68-27.383 72.056-70.435 96.077-100.09-6.91-52.945-23.317-136.025-40.237-186.635l-.23.23c-23.18 27.95-59.811 46.366-97.011 38.606-35.51-8.27-67.519-26.216-93.219-51.546-15.65 15.28-35.09 26.07-56.77 29.81-15.8 45.93-26.4 55.93-41.59 82.85l53.41 86.025c4.02-9.439 55.05 30.543 67.29 28.814-18.55-92.611 18.248 30.085 21.625 28.567 19.53 4.299 19.482 9.646 42.012 10.113 68.747 108.016-6.618-15.159 5.581-26.046 7.28-8.925-13.372-26.718-11.452-16.952 6.72 28.691 24.693 20.663 32.123 49.399" fill="#f8bfae"/><path d="M1415.258 786.076c-20.002-3.995-45.12-38.583-43.806-31.645.869 4.589 42.103 67.365 43.756 69.893 63.679 97.362 85.849 117.539 107.932 117.457 24.372-.091 34.9-16.744 108.344-116.56 3.181-4.323 28.081-35.471 29.267-42.357-35.004 5.824-70.014 67.857-96.974 84.695-4.644 2.9-10.996 12.222-16.66-6.425-6.75-22.222 6.347-71.816-11.176-117.983-9.068-25.697-28.622 44.264-40.557 65.535-24.678 38.162-53.51-75.902-63.519-65.518-10.202 11.532 13.857 42.62-16.607 42.908z" fill="#e79300"/><path d="M209.212 860.067c.608 7.804 17.703 42.664 22.656 37.291 23.224-17.43 3.887 14.365 25.896-4.466 35.221-31.98 103.281-116.187 152.237-194.302-14.392-29.16-36.76-41.973-41.541-88.27-18.831-6.12-34.999-17.66-49.624-30.7-17.803 36.64-58.97 61.68-100.044 54.91-44.718-7.85-83.502-36.03-114.202-68.37-23.083 59.53-39.204 121.78-47.381 185.091 3.505 14.159 15.139 25.513 21.915 38.55 4.205-11.588 29.208 37.099 36.03 26.679 17.943-3.738-3.403-5.232 15.942-17.615 1.823-10.794-1.06 19.957 5.155 10.191 13.223 11.401 7.675 29.848 24.31 37.605 19.813 2.523 20.789 41.775 32.378 30.139 5.887-9.252 13.976-79.021 15.425-68.508 6.775 27.476-2.512 10.379 2.348 37.901" fill="#f8bfae"/><path d="M106.466 795.623c-20.002-3.995-45.12-38.583-43.806-31.645.869 4.589 42.103 67.365 43.756 69.893 63.679 97.362 83.974 113.789 106.057 113.707 24.372-.091 32.275-16.743 105.719-116.56 3.181-4.323 25.081-32.471 26.267-39.357-35.004 5.824-67.014 73.107-93.974 89.945-4.644 2.9-9.871 5.472-15.535-13.175-6.75-22.222 9.722-69.566-7.801-115.733-9.068-25.697-28.622 44.264-40.557 65.535-24.678 38.162-53.51-75.902-63.52-65.518-10.202 11.532 13.857 42.62-16.607 42.907z" fill="#bb2c35"/><path d="M791.727 715.064c37.748 21.36 81.942 34.972 124.875 27.188 52.323-9.358 95.165-45.724 123.568-88.701-.651-85.445 22.139-483.794.763-582.512-111.378-28.38-228.563-24.791-340.637-5.246-38.448 190.442-37.337 413.319.618 579.888 26.722 27.085 57.551 50.835 90.813 69.383" fill="#32a3db"/><path d="M1040.17 651.53c62.164 160.09 149.695 109.765 289.06-44.63l-.092-404.554C1242.788 141.646 1143.67 94.5 1040.64 70.9c-.94 21.03-1.17 42.05-1.03 63.08l.56 517.55M576.115 758.173c101.478 73.91 110.764-104.726 126.052-121.969l-.514-477.249c-.374-31.036 1.261-62.16-1.309-93.196-101.237 19.067-197.987 58.469-284.548 112.848l-.905 409.042" fill="#2c89bb"/><path d="M910.219 1087.13c3.972 8.32-6.234 27.11.121 22.07 36.494-25.7 34.264 16.09 65.95-14.653 118.069-146.855 275.085-347.59 348.405-473.896 6.611-11.389 4.963-25.885 4.493-38.455-37.43 48.92-74.012 64.345-133.362 85.695-53.08 18.224-119.628-17.975-155.888-56.765-28.41 43.88-74.211 83.718-126.546 94.466-42.943 8.925-90.329-3.598-128.085-24.065-33.27-17.76-56.66-39.746-83.389-66.246-30.42 35.24-86.703 56.218-133.337 52.808-27.57-2.43-63.643-16.571-85.512-32.931-35.185-26.31-43.32-24.122-68.179-60.002.328 14.57-2.664 31.914 3.12 45.281 57.739 133.442 151.864 237.652 222.469 350.826l21.523-28.755c18.691 7.102 32.663 23.177 51.961 29.017 10.187 2.337 23.177-4.112 24.859-15.046-2.196-13.925-34.705-2.209-29.892-16.414 16.541-2.243 30.411 39.13 37.42 49.55 9.532 16.542 37.438 70.13 60.755 67.56 31.962-9.112 33.256-123.359 61.9-137.517 14.766-6.028-7.038 23.374-3.954 38.42 5.186 23.691 13.367 40.97 10.704 64.94-3.271 24.72 22.174 41.173 34.464 64.113" fill="#f8bfae"/><path d="M671.348 936.828c-34.149-6.821-69.312-46.514-75.764-36.331-2.851 4.5 68.416 105.842 71.011 110.3 196.951 338.246 183.541 316.284 397.605-14.427 12.735-19.675 35.076-51.311 22.838-49.275-59.763 9.944-95.903 108.531-141.932 137.279-7.928 4.952-27.443 13.077-37.113-18.759-11.524-37.94-.688-123.251-30.605-202.071-15.482-43.872-48.866 75.571-69.242 111.888-42.132 65.154-91.358-129.587-108.446-111.858-17.417 19.688 23.657 72.765-28.353 73.256z" fill="#2c89bb"/></g></svg>